<svg xmlns="http://www.w3.org/2000/svg" version="1.1" xmlns:xlink="http://www.w3.org/1999/xlink" xmlns:svgjs="http://svgjs.com/svgjs" width="1440" height="560" preserveAspectRatio="none" viewBox="0 0 1440 560"><g mask="url(&quot;#SvgjsMask1009&quot;)" fill="none"><path d="M1017.75 493.34999999999997 L1109.68 442.12L1106.3156476237232 510.3356476237231z" stroke="#037b0b" stroke-width="1" stroke-dasharray="4, 4"></path><rect width="300" height="300" clip-path="url(&quot;#SvgjsClipPath1010&quot;)" x="65.7" y="-148.31" fill="url(#SvgjsPattern1011)" transform="rotate(3.75, 215.7, 1.69)"></rect><path d="M982.63 216.62a5.6 5.6 0 1 0-2-11.02 5.6 5.6 0 1 0 2 11.02zM979.77 200.88a5.6 5.6 0 1 0-2-11.02 5.6 5.6 0 1 0 2 11.02zM976.91 185.13a5.6 5.6 0 1 0-2-11.02 5.6 5.6 0 1 0 2 11.02zM974.05 169.39a5.6 5.6 0 1 0-2-11.02 5.6 5.6 0 1 0 2 11.02z" fill="#d3b714"></path><path d="M1392.75 515.7L1383.97 506.38 1391.14 495.77 1382.36 486.45 1389.53 475.83 1380.75 466.51 1387.91 455.9M1400.72 515.06L1391.94 505.74 1399.11 495.12 1390.33 485.8 1397.5 475.19 1388.72 465.87 1395.89 455.25M1408.7 514.41L1399.92 505.09 1407.08 494.48 1398.3 485.16 1405.47 474.54 1396.69 465.22 1403.86 454.61" stroke="#d3b714" stroke-width="1" stroke-dasharray="4, 4"></path><circle r="46.666666666666664" cx="1258.54" cy="454.02" fill="rgba(219, 77, 8, 1)"></circle><path d="M1393.38 513.15a5.6 5.6 0 1 0-11.2 0.31 5.6 5.6 0 1 0 11.2-0.31zM1377.39 513.59a5.6 5.6 0 1 0-11.2 0.31 5.6 5.6 0 1 0 11.2-0.31zM1361.39 514.04a5.6 5.6 0 1 0-11.19 0.3 5.6 5.6 0 1 0 11.19-0.3zM1345.4 514.48a5.6 5.6 0 1 0-11.2 0.31 5.6 5.6 0 1 0 11.2-0.31z" fill="rgba(219, 77, 8, 1)"></path><rect width="108" height="108" clip-path="url(&quot;#SvgjsClipPath1012&quot;)" x="294.71" y="101.52" fill="url(#SvgjsPattern1013)" transform="rotate(186.41, 348.71, 155.52)"></rect><rect width="60" height="60" clip-path="url(&quot;#SvgjsClipPath1014&quot;)" x="1126.26" y="146.01" fill="url(#SvgjsPattern1015)" transform="rotate(341.96, 1156.26, 176.01)"></rect><path d="M1211.94 153.39L1200.27 148.11 1202.85 135.57 1191.18 130.3 1193.77 117.75 1182.1 112.48 1184.68 99.94" stroke="#d3b714" stroke-width="2.35" stroke-dasharray="2, 2"></path><rect width="84" height="84" clip-path="url(&quot;#SvgjsClipPath1016&quot;)" x="176.15" y="99.25" fill="url(#SvgjsPattern1017)" transform="rotate(187.92, 218.15, 141.25)"></rect><path d="M1223.01 167.24a5.6 5.6 0 1 0-8.52-7.26 5.6 5.6 0 1 0 8.52 7.26zM1210.83 156.87a5.6 5.6 0 1 0-8.53-7.26 5.6 5.6 0 1 0 8.53 7.26zM1198.65 146.49a5.6 5.6 0 1 0-8.53-7.26 5.6 5.6 0 1 0 8.53 7.26zM1186.47 136.12a5.6 5.6 0 1 0-8.53-7.26 5.6 5.6 0 1 0 8.53 7.26z" fill="rgba(219, 77, 8, 1)"></path><rect width="168" height="168" clip-path="url(&quot;#SvgjsClipPath1018&quot;)" x="322.24" y="272.48" fill="url(#SvgjsPattern1019)" transform="rotate(300.52, 406.24, 356.48)"></rect></g><defs><mask id="SvgjsMask1009"><rect width="1440" height="560" fill="#ffffff"></rect></mask><pattern x="0" y="0" width="300" height="6" patternUnits="userSpaceOnUse" id="SvgjsPattern1011"><rect width="300" height="3" x="0" y="0" fill="rgba(219, 77, 8, 1)"></rect><rect width="300" height="3" x="0" y="3" fill="rgba(0, 0, 0, 0)"></rect></pattern><clipPath id="SvgjsClipPath1010"><circle r="75" cx="215.7" cy="1.69"></circle></clipPath><pattern x="0" y="0" width="108" height="6" patternUnits="userSpaceOnUse" id="SvgjsPattern1013"><rect width="108" height="3" x="0" y="0" fill="#d3b714"></rect><rect width="108" height="3" x="0" y="3" fill="rgba(0, 0, 0, 0)"></rect></pattern><clipPath id="SvgjsClipPath1012"><circle r="27" cx="348.71" cy="155.52"></circle></clipPath><pattern x="0" y="0" width="6" height="6" patternUnits="userSpaceOnUse" id="SvgjsPattern1015"><path d="M0 6L3 0L6 6" stroke="rgba(219, 77, 8, 1)" fill="none"></path></pattern><clipPath id="SvgjsClipPath1014"><circle r="15" cx="1156.26" cy="176.01"></circle></clipPath><pattern x="0" y="0" width="6" height="6" patternUnits="userSpaceOnUse" id="SvgjsPattern1017"><path d="M3 1L3 5M1 3L5 3" stroke="#037b0b" fill="none" stroke-width="1.6"></path></pattern><clipPath id="SvgjsClipPath1016"><circle r="21" cx="218.15" cy="141.25"></circle></clipPath><pattern x="0" y="0" width="6" height="6" patternUnits="userSpaceOnUse" id="SvgjsPattern1019"><path d="M0 6L3 0L6 6" stroke="#d3b714" fill="none"></path></pattern><clipPath id="SvgjsClipPath1018"><circle r="42" cx="406.24" cy="356.48"></circle></clipPath></defs></svg>