<svg xmlns="http://www.w3.org/2000/svg" version="1.1" xmlns:xlink="http://www.w3.org/1999/xlink" xmlns:svgjs="http://svgjs.com/svgjs" width="1440" height="560" preserveAspectRatio="none" viewBox="0 0 1440 560"><g mask="url(&quot;#SvgjsMask1083&quot;)" fill="none"><circle r="87.6290739707727" cx="516.01" cy="273.63" stroke="rgba(25, 207, 232, 1)" stroke-width="1" stroke-dasharray="2, 2"></circle><rect width="204" height="204" clip-path="url(&quot;#SvgjsClipPath1084&quot;)" x="920.37" y="61.15" fill="url(#SvgjsPattern1085)" transform="rotate(336.88, 1022.37, 163.15)"></rect><path d="M668.12 15.55L677.04 6.36 687.96 13.05 696.88 3.86 707.8 10.55 716.73 1.37 727.65 8.06" stroke="rgba(253, 212, 157, 1)" stroke-width="2.17" stroke-dasharray="3, 3"></path><path d="M1088.76 241.04000000000002 L1225.61 156.84L1085.8591489925718 127.61414899257178z" stroke="rgba(238, 241, 247, 1)" stroke-width="1" stroke-dasharray="3, 2"></path><path d="M7.95 29.72L-3.13 23.3 0.7 11.08-10.39 4.67-6.56-7.55-17.65-13.97-13.82-26.19" stroke="rgba(25, 207, 232, 1)" stroke-width="1" stroke-dasharray="3, 2"></path><circle r="46.666666666666664" cx="1015.72" cy="166.97" fill="rgba(25, 207, 232, 1)"></circle><circle r="92.90368100559184" cx="1406.73" cy="529.34" fill="rgba(25, 207, 232, 1)"></circle><path d="M794.82 342.62L782.14 340.85 781.08 328.09 768.4 326.31 767.34 313.55 754.66 311.78 753.6 299.02M800.64 337.12L787.95 335.35 786.9 322.59 774.21 320.82 773.16 308.06 760.47 306.28 759.42 293.52M806.45 331.63L793.77 329.86 792.71 317.09 780.03 315.32 778.97 302.56 766.29 300.79 765.23 288.03" stroke="rgba(25, 207, 232, 1)" stroke-width="2.26" stroke-dasharray="3, 2"></path><path d="M50.03 543.42a5.6 5.6 0 1 0 4.86-10.09 5.6 5.6 0 1 0-4.86 10.09zM56.97 529.01a5.6 5.6 0 1 0 4.86-10.1 5.6 5.6 0 1 0-4.86 10.1zM63.91 514.59a5.6 5.6 0 1 0 4.86-10.09 5.6 5.6 0 1 0-4.86 10.09zM70.85 500.17a5.6 5.6 0 1 0 4.86-10.09 5.6 5.6 0 1 0-4.86 10.09zM50.57 579.2a5.6 5.6 0 1 0 4.86-10.1 5.6 5.6 0 1 0-4.86 10.1zM57.51 564.78a5.6 5.6 0 1 0 4.86-10.09 5.6 5.6 0 1 0-4.86 10.09zM64.45 550.36a5.6 5.6 0 1 0 4.86-10.09 5.6 5.6 0 1 0-4.86 10.09zM71.39 535.94a5.6 5.6 0 1 0 4.86-10.09 5.6 5.6 0 1 0-4.86 10.09z" fill="rgba(25, 207, 232, 1)"></path><path d="M774.76 225.2L777.86 237.63 766.42 243.38 769.52 255.81 758.07 261.56 761.17 273.98 749.73 279.73M767.49 221.87L770.59 234.29 759.15 240.04 762.24 252.47 750.8 258.22 753.9 270.64 742.46 276.39" stroke="rgba(25, 207, 232, 1)" stroke-width="1" stroke-dasharray="3, 3"></path><path d="M677.24 64.98L689.67 61.87 695.42 73.31 707.85 70.21 713.61 81.65 726.03 78.54 731.79 89.98M673.91 72.25L686.33 69.14 692.09 80.58 704.51 77.48 710.27 88.92 722.7 85.81 728.45 97.25M670.58 79.52L683 76.41 688.76 87.85 701.18 84.75 706.94 96.19 719.36 93.09 725.12 104.52" stroke="rgba(238, 241, 247, 1)" stroke-width="1" stroke-dasharray="3, 3"></path><path d="M452.65 303.2a5.6 5.6 0 1 0 4.38 10.31 5.6 5.6 0 1 0-4.38-10.31zM458.9 317.93a5.6 5.6 0 1 0 4.37 10.31 5.6 5.6 0 1 0-4.37-10.31zM465.15 332.66a5.6 5.6 0 1 0 4.37 10.31 5.6 5.6 0 1 0-4.37-10.31zM471.4 347.39a5.6 5.6 0 1 0 4.37 10.31 5.6 5.6 0 1 0-4.37-10.31z" stroke="rgba(238, 241, 247, 1)" stroke-width="1.45" stroke-dasharray="3, 2"></path></g><defs><mask id="SvgjsMask1083"><rect width="1440" height="560" fill="#ffffff"></rect></mask><pattern x="0" y="0" width="6" height="6" patternUnits="userSpaceOnUse" id="SvgjsPattern1085"><path d="M3 1L3 5M1 3L5 3" stroke="rgba(25, 207, 232, 1)" fill="none" stroke-width="1"></path></pattern><clipPath id="SvgjsClipPath1084"><circle r="51" cx="1022.37" cy="163.15"></circle></clipPath></defs></svg>