<svg xmlns="http://www.w3.org/2000/svg" version="1.1" xmlns:xlink="http://www.w3.org/1999/xlink" xmlns:svgjs="http://svgjs.com/svgjs" width="1440" height="560" preserveAspectRatio="none" viewBox="0 0 1440 560"><g mask="url(&quot;#SvgjsMask1012&quot;)" fill="none"><path d="M175.46 548.29L179.07 548.29L179.07 551.9L175.46 551.9z" fill="rgba(134, 136, 134, 1)"></path><path d="M37.2 138.24L76.07 138.24L76.07 177.11L37.2 177.11z" fill="rgba(253, 82, 99, 1)"></path><path d="M1155.75 409.08L1161.64 409.08L1161.64 464.63L1155.75 464.63z" stroke="rgba(134, 136, 134, 1)"></path><path d="M1029.51 68.45L1046.09 68.45L1046.09 102.54L1029.51 102.54z" stroke="rgba(253, 82, 99, 1)"></path><path d="M676.56 327.69L686.68 327.69L686.68 337.81L676.56 337.81z" fill="rgba(253, 82, 99, 1)"></path><path d="M61.91 213.74 a51.83 51.83 0 1 0 103.66 0 a51.83 51.83 0 1 0 -103.66 0z" fill="rgba(255, 255, 255, 1)"></path><path d="M10.94 17.95L59.44 17.95L59.44 73.87L10.94 73.87z" stroke="rgba(255, 255, 255, 1)"></path><path d="M321.87 52.03L340.71 52.03L340.71 82.88L321.87 82.88z" stroke="rgba(253, 82, 99, 1)"></path><path d="M736.91 74.61 a27.91 27.91 0 1 0 55.82 0 a27.91 27.91 0 1 0 -55.82 0z" fill="rgba(253, 82, 99, 1)"></path><path d="M414.24 467.34a40.31 40.31 0 1 0-74.02-31.96z" fill="rgba(255, 255, 255, 1)"></path><path d="M516.64 362L523.43 362L523.43 368.79L516.64 368.79z" fill="rgba(253, 82, 99, 1)"></path><path d="M203 329.64 a42.59 42.59 0 1 0 85.18 0 a42.59 42.59 0 1 0 -85.18 0z" fill="rgba(253, 82, 99, 1)"></path><path d="M1205.97 84.03 a40.78 40.78 0 1 0 81.56 0 a40.78 40.78 0 1 0 -81.56 0z" fill="rgba(255, 255, 255, 1)"></path><path d="M321.18 206.03a39.19 39.19 0 1 0 54.5-56.34z" stroke="rgba(134, 136, 134, 1)"></path><path d="M245.84 15.59L300.1 15.59L300.1 69.85L245.84 69.85z" stroke="rgba(255, 255, 255, 1)"></path><path d="M229.39-17.61a52.01 52.01 0 1 0 70.67 76.32z" fill="rgba(255, 255, 255, 1)"></path><path d="M783.03 482.57L819.85 482.57L819.85 519.39L783.03 519.39z" stroke="rgba(255, 255, 255, 1)"></path><path d="M517.82 50.85 a38.35 38.35 0 1 0 76.7 0 a38.35 38.35 0 1 0 -76.7 0z" fill="rgba(255, 255, 255, 1)"></path><path d="M1006.7 84.14a13.11 13.11 0 1 0 26.1-2.46z" stroke="rgba(134, 136, 134, 1)"></path><path d="M1260.55 443.56a41.28 41.28 0 1 0 80.54-18.14z" stroke="rgba(253, 82, 99, 1)"></path><path d="M1217.56 39.92L1220.13 39.92L1220.13 86.23L1217.56 86.23z" stroke="rgba(134, 136, 134, 1)"></path><path d="M526.79 444.26 a34.99 34.99 0 1 0 69.98 0 a34.99 34.99 0 1 0 -69.98 0z" fill="rgba(255, 255, 255, 1)"></path><path d="M1000.32 408.53L1004.29 408.53L1004.29 412.5L1000.32 412.5z" fill="rgba(255, 255, 255, 1)"></path><path d="M357 293.08L388.6 293.08L388.6 324.68L357 324.68z" stroke="rgba(255, 255, 255, 1)"></path><path d="M1083.42 32.57L1132.78 32.57L1132.78 81.93L1083.42 81.93z" stroke="rgba(134, 136, 134, 1)"></path><path d="M1286.33 366.01 a33.63 33.63 0 1 0 67.26 0 a33.63 33.63 0 1 0 -67.26 0z" fill="rgba(134, 136, 134, 1)"></path><path d="M12.93 472.33L45.42 472.33L45.42 495.32L12.93 495.32z" fill="rgba(255, 255, 255, 1)"></path><path d="M617.15 200.33L658.45 200.33L658.45 241.63L617.15 241.63z" fill="rgba(253, 82, 99, 1)"></path><path d="M1303.03 238.27L1336.71 238.27L1336.71 271.95L1303.03 271.95z" fill="rgba(253, 82, 99, 1)"></path><path d="M328.67 183.04L384.21 183.04L384.21 238.58L328.67 238.58z" fill="rgba(255, 255, 255, 1)"></path><path d="M1261.95 410.03L1299.87 410.03L1299.87 447.95L1261.95 447.95z" fill="rgba(134, 136, 134, 1)"></path><path d="M403.14 139.72 a7.05 7.05 0 1 0 14.1 0 a7.05 7.05 0 1 0 -14.1 0z" fill="rgba(253, 82, 99, 1)"></path><path d="M379.88 445.73L428.04 445.73L428.04 452.74L379.88 452.74z" fill="rgba(253, 82, 99, 1)"></path></g><defs><mask id="SvgjsMask1012"><rect width="1440" height="560" fill="#ffffff"></rect></mask></defs></svg>